<svg width="1082" height="245" viewBox="0 0 1082 245" fill="none" xmlns="http://www.w3.org/2000/svg">
<path d="M335.717 244.437V5.34544H348.547V42.9549C350.062 41.2872 351.461 39.5157 352.735 37.6532C363.451 15.181 386.052 0.998311 410.727 1.27844C439.98 0.396561 463.752 11.3422 477.721 37.6532C486.611 53.9987 491.503 72.2568 491.989 90.9027C492.474 109.549 488.54 128.041 480.513 144.837C467.498 174.323 435.351 188.983 400.935 183.598C390.225 182.678 379.913 179.06 370.941 173.076C361.97 167.092 354.624 158.932 349.574 149.34V244.427L335.717 244.437ZM348.547 89.9225L351.421 117.997C356.492 149.952 375.183 168.835 404.528 172.383C418.308 174.673 432.448 172.061 444.538 164.994C456.627 157.925 465.917 146.839 470.824 133.622C482.238 106.128 481.396 75.0032 468.566 48.1527C463.328 36.3053 454.419 26.5029 443.182 20.227C431.945 13.951 418.993 11.5425 406.283 13.3654C394.352 14.2427 382.989 18.854 373.769 26.5588C364.55 34.2637 357.934 44.6795 354.839 56.3594C352.107 67.4123 350.006 78.6151 348.547 89.9121V89.9225ZM753.961 122.417C752.015 139.251 744.087 154.798 731.65 166.166C719.213 177.535 703.116 183.951 686.351 184.221C632.546 186.96 607.296 150.844 603.283 109.168C600.492 86.5357 604.127 63.5677 613.763 42.9445C620.469 28.797 631.457 17.1749 645.135 9.76212C658.814 2.34929 674.471 -0.469471 689.84 1.71419C704.451 2.96949 718.301 8.8376 729.431 18.4879C740.561 28.1383 748.406 41.0822 751.856 55.4879C754.59 68.6105 756.602 81.8762 757.881 95.2241H616.575C613.958 133.01 634.045 163.388 662.517 170.713C697.98 179.531 728.29 164 739.293 129.918C741.736 121.172 746.191 119.937 754.053 122.417H753.961ZM616.472 83.1269H742.865C742.075 42.8719 717.277 13.6144 683.641 13.2824C645.664 12.6599 618.125 40.745 616.472 83.1269ZM780.083 123.299H792.472C792.926 132.524 795.891 141.445 801.037 149.078C806.184 156.71 813.314 162.761 821.642 166.563C832.101 171.32 843.485 173.632 854.949 173.326C866.413 173.021 877.661 170.106 887.856 164.799C893.415 162.269 898.069 158.077 901.194 152.787C904.318 147.496 905.76 141.365 905.326 135.22C905.646 129.294 904.045 123.422 900.767 118.498C897.488 113.574 892.71 109.865 887.158 107.933C873.528 102.808 859.035 99.9862 845.147 95.4835C830.696 91.3248 816.566 86.1026 802.869 79.8587C780.493 68.8197 779.108 25.8257 804.44 12.2137C817.411 4.81539 832.008 0.817879 846.899 0.585905C861.792 0.353941 876.503 3.8949 889.694 10.8857C906.055 20.0157 915.098 38.4521 912.408 57.1582H901.785C901.785 56.6395 900.82 56.1829 900.82 55.6538C899.506 21.4163 871.034 10.7094 840.467 13.7181C831.229 14.7556 822.474 17.5776 814.263 21.7484C809.326 24.0268 805.213 27.7999 802.492 32.5452C799.769 37.2906 798.575 42.7736 799.072 48.2356C799.082 53.7018 800.767 59.0305 803.895 63.4893C807.023 67.948 811.441 71.3179 816.541 73.1357C829.885 78.0846 844.049 81.2594 857.854 85.1396L891.213 93.9583C898.795 96.4739 905.443 101.257 910.278 107.674C915.112 114.091 917.906 121.84 918.29 129.897C920.958 148.002 911.823 165.795 895.668 174.043C866.497 190.726 818.45 186.317 797.05 165.224C786.098 154.092 779.99 138.975 780.114 123.288L780.083 123.299ZM1075.49 57.1685H1063.87C1063.87 55.5811 1063.25 54.0561 1063.08 52.8422C1062.89 44.0387 1059.72 35.5673 1054.08 28.8484C1048.46 22.1293 1040.71 17.5713 1032.15 15.9384C1016 11.2568 998.777 12.0957 983.149 18.3246C976.97 20.1121 971.529 23.8735 967.64 29.0462C963.751 34.2189 961.623 40.5251 961.574 47.0219C961.352 53.4009 963.317 59.6616 967.137 64.7451C970.956 69.8285 976.394 73.4228 982.533 74.9202L1035.64 88.6982C1041.39 90.0904 1047.04 91.8296 1052.58 93.9065C1069.51 100.131 1081.01 116.026 1081.52 134.193C1081.78 143.085 1079.37 151.847 1074.6 159.327C1069.84 166.808 1062.94 172.658 1054.83 176.108C1042.51 181.767 1029.15 184.761 1015.61 184.899C1002.07 185.036 988.657 182.314 976.221 176.906C965.993 172.448 957.362 164.931 951.49 155.365C945.618 145.799 942.786 134.645 943.375 123.403H954.727C958.997 144.204 973.131 161.531 992.52 169.727C1011.91 177.923 1034.05 175.91 1051.68 164.373C1056.97 161.592 1061.36 157.337 1064.34 152.111C1067.3 146.885 1068.74 140.908 1068.45 134.888C1068.72 128.957 1067.06 123.102 1063.73 118.209C1060.41 113.317 1055.59 109.655 1050.02 107.778C1036.39 102.653 1021.9 99.924 1008.01 95.3278C993.477 91.2331 979.261 86.0699 965.474 79.8795C943.632 69.0169 941.887 26.3756 966.788 12.774C979.919 5.06514 994.801 0.923767 1009.99 0.75287C1025.17 0.581962 1040.14 4.38735 1053.44 11.7987C1061.04 16.3871 1067.16 23.1119 1071.06 31.1544C1074.95 39.1969 1076.45 48.2099 1075.36 57.0959L1075.49 57.1685ZM314.604 179.905C310.03 181.653 304.981 181.648 300.411 179.891C295.841 178.135 292.065 174.748 289.795 170.37L244.633 107.238L238.084 98.4196L185.676 170.464C183.54 174.653 179.968 177.914 175.627 179.636C171.286 181.358 166.473 181.424 162.089 179.822L229.606 88.2625L166.79 5.53219C176.109 2.12919 186.497 5.82269 191.68 14.351L238.485 78.261L285.566 14.6C287.719 10.4819 291.293 7.30707 295.61 5.67916C299.926 4.05125 304.684 4.08387 308.979 5.77081L284.602 38.4625L251.582 81.9026C250.665 82.7298 249.932 83.7433 249.43 84.8769C248.927 86.0104 248.669 87.2384 248.669 88.4803C248.669 89.7222 248.927 90.9502 249.43 92.0837C249.932 93.2173 250.665 94.2308 251.582 95.0581L314.47 179.905H314.604ZM601.281 4.65032V17.1004C592.447 16.5146 583.589 17.8078 575.279 20.8965C566.969 23.9851 559.393 28.8007 553.039 35.0321C546.684 41.2636 541.693 48.7726 538.387 57.0746C535.081 65.3766 533.534 74.2869 533.846 83.2306C533.846 112.309 533.846 141.386 533.846 170.464V180.351H521.354V5.42843H533.671V41.2741C548.78 15.1291 572.1 5.42845 601.363 4.72295L601.281 4.65032ZM0.417867 87.1212L5.91945 59.6586C21.0282 5.35581 82.6132 -17.2409 124.984 16.3949C149.792 36.0866 155.981 63.985 154.77 95.4212H15.0032C12.7451 151.571 52.8266 185.476 104.096 168.171C120.991 161.946 133.708 147.753 137.896 130.115C140.606 121.296 145.081 119.782 153.272 122.334C151.906 133.084 148.146 143.381 142.276 152.451C136.406 161.519 128.577 169.126 119.379 174.697C104.184 183.096 86.7498 186.425 69.5701 184.205C52.3904 181.986 36.3448 174.332 23.7277 162.34C11.2465 148.157 3.71266 130.229 2.24489 111.295C2.24489 108.182 1.21847 105.277 0.49998 102.476C0.431549 97.2403 0.397339 92.122 0.397339 87.1212H0.417867ZM15.1777 83.324H141.571C140.78 42.6229 115.366 13.7492 81.4738 13.4795C43.7428 12.9607 16.7481 41.2015 15.0853 83.1476L15.1777 83.324Z" fill="black"/>
</svg>
