<svg width="491" height="491" viewBox="0 0 491 491" fill="none" xmlns="http://www.w3.org/2000/svg">
<path d="M288.333 0C215.928 0 139 22.421 139 64V256C139 298.027 214.115 320 288.333 320C362.551 320 437.666 298.027 437.666 256V64C437.667 22.421 360.739 0 288.333 0ZM416.333 256C416.333 276.181 363.768 298.667 288.333 298.667C212.898 298.667 160.333 276.182 160.333 256V226.091C188.216 245.675 239.266 256 288.333 256C337.4 256 388.45 245.675 416.333 226.091V256ZM416.333 192C416.333 209.813 367.629 234.667 288.333 234.667C209.037 234.667 160.333 209.814 160.333 192V162.091C188.216 181.675 239.266 192 288.333 192C337.4 192 388.45 181.675 416.333 162.091V192ZM416.333 128C416.333 145.813 367.629 170.667 288.333 170.667C209.037 170.667 160.333 145.814 160.333 128V98.091C188.216 117.675 239.266 128 288.333 128C337.4 128 388.45 117.675 416.333 98.091V128ZM288.333 106.667C209.037 106.667 160.333 81.814 160.333 64C160.333 46.187 209.037 21.333 288.333 21.333C367.629 21.333 416.333 46.186 416.333 64C416.333 81.813 367.629 106.667 288.333 106.667Z" fill="black"/>
<path d="M207.015 384.405L203.858 383.872C185.149 380.821 182.354 375.957 182.354 373.333C182.354 369.088 190.866 362.666 203.709 362.666C216.317 362.666 224.637 368.661 225.064 372.97C225.619 378.837 230.803 383.359 236.691 382.57C242.558 382.015 246.846 376.81 246.291 370.943C244.67 354.047 226.366 341.311 203.688 341.311C179.752 341.311 161 355.37 161 373.311C161 390.015 174.248 400.639 200.403 404.906L202.131 394.389L203.56 405.44C221.288 408.363 225 412.8 225 416C225 420.245 216.488 426.667 203.645 426.667C191.037 426.667 182.717 420.651 182.29 416.342C181.735 410.475 176.679 406.102 170.663 406.742C164.796 407.297 160.508 412.502 161.063 418.369C162.685 435.264 180.989 448 203.666 448C227.602 448 246.354 433.941 246.354 416C246.354 399.317 233.127 388.693 207.015 384.405Z" fill="black"/>
<path d="M353.021 373.333C353.021 355.69 338.664 341.333 321.021 341.333H299.688C282.045 341.333 267.688 355.69 267.688 373.333V416C267.688 433.643 282.045 448 299.688 448H321.021C325.949 448 330.557 446.784 334.717 444.8L334.802 444.885C336.893 446.954 339.623 448 342.354 448C345.085 448 347.815 446.955 349.885 444.885C354.045 440.725 354.045 433.962 349.885 429.802L349.8 429.717C351.805 425.557 353.021 420.928 353.021 416V373.333ZM331.687 411.605L328.551 408.469C324.391 404.309 317.628 404.309 313.468 408.469C309.308 412.629 309.308 419.392 313.468 423.552L316.583 426.667H299.687C293.799 426.667 289.02 421.888 289.02 416V373.333C289.02 367.445 293.799 362.666 299.687 362.666H321.02C326.908 362.666 331.687 367.445 331.687 373.333V411.605V411.605Z" fill="black"/>
<path d="M427.687 426.667H395.687V352C395.687 346.112 390.908 341.333 385.02 341.333C379.132 341.333 374.353 346.112 374.353 352V437.333C374.353 443.221 379.132 448 385.02 448H427.687C433.575 448 438.354 443.221 438.354 437.333C438.354 431.445 433.575 426.667 427.687 426.667Z" fill="black"/>
</svg>
