<svg width="618" height="138" viewBox="0 0 618 138" fill="none" xmlns="http://www.w3.org/2000/svg">
<path d="M0.140625 5.625H38.3203C46.1484 5.625 52.875 6.79688 58.5 9.14062C64.1719 11.4844 68.5312 14.9531 71.5781 19.5469C74.625 24.1406 76.1484 29.7891 76.1484 36.4922C76.1484 41.9766 75.2109 46.6875 73.3359 50.625C71.5078 54.5156 68.9062 57.7734 65.5312 60.3984C62.2031 62.9766 58.2891 65.0391 53.7891 66.5859L47.1094 70.1016H13.9219L13.7812 53.6484H38.4609C42.1641 53.6484 45.2344 52.9922 47.6719 51.6797C50.1094 50.3672 51.9375 48.5391 53.1562 46.1953C54.4219 43.8516 55.0547 41.1328 55.0547 38.0391C55.0547 34.7578 54.4453 31.9219 53.2266 29.5312C52.0078 27.1406 50.1562 25.3125 47.6719 24.0469C45.1875 22.7812 42.0703 22.1484 38.3203 22.1484H21.2344V108H0.140625V5.625ZM57.375 108L34.0312 62.3672L56.3203 62.2266L79.9453 107.016V108H57.375ZM132.188 90.8438V56.9531C132.188 54.5156 131.789 52.4297 130.992 50.6953C130.195 48.9141 128.953 47.5312 127.266 46.5469C125.625 45.5625 123.492 45.0703 120.867 45.0703C118.617 45.0703 116.672 45.4688 115.031 46.2656C113.391 47.0156 112.125 48.1172 111.234 49.5703C110.344 50.9766 109.898 52.6406 109.898 54.5625H89.6484C89.6484 51.3281 90.3984 48.2578 91.8984 45.3516C93.3984 42.4453 95.5781 39.8906 98.4375 37.6875C101.297 35.4375 104.695 33.6797 108.633 32.4141C112.617 31.1484 117.07 30.5156 121.992 30.5156C127.898 30.5156 133.148 31.5 137.742 33.4688C142.336 35.4375 145.945 38.3906 148.57 42.3281C151.242 46.2656 152.578 51.1875 152.578 57.0938V89.6484C152.578 93.8203 152.836 97.2422 153.352 99.9141C153.867 102.539 154.617 104.836 155.602 106.805V108H135.141C134.156 105.938 133.406 103.359 132.891 100.266C132.422 97.125 132.188 93.9844 132.188 90.8438ZM134.859 61.6641L135 73.125H123.68C121.008 73.125 118.688 73.4297 116.719 74.0391C114.75 74.6484 113.133 75.5156 111.867 76.6406C110.602 77.7188 109.664 78.9844 109.055 80.4375C108.492 81.8906 108.211 83.4844 108.211 85.2188C108.211 86.9531 108.609 88.5234 109.406 89.9297C110.203 91.2891 111.352 92.3672 112.852 93.1641C114.352 93.9141 116.109 94.2891 118.125 94.2891C121.172 94.2891 123.82 93.6797 126.07 92.4609C128.32 91.2422 130.055 89.7422 131.273 87.9609C132.539 86.1797 133.195 84.4922 133.242 82.8984L138.586 91.4766C137.836 93.3984 136.805 95.3906 135.492 97.4531C134.227 99.5156 132.609 101.461 130.641 103.289C128.672 105.07 126.305 106.547 123.539 107.719C120.773 108.844 117.492 109.406 113.695 109.406C108.867 109.406 104.484 108.445 100.547 106.523C96.6562 104.555 93.5625 101.859 91.2656 98.4375C89.0156 94.9688 87.8906 91.0312 87.8906 86.625C87.8906 82.6406 88.6406 79.1016 90.1406 76.0078C91.6406 72.9141 93.8438 70.3125 96.75 68.2031C99.7031 66.0469 103.383 64.4297 107.789 63.3516C112.195 62.2266 117.305 61.6641 123.117 61.6641H134.859ZM188.438 46.5469V137.25H168.188V31.9219H186.961L188.438 46.5469ZM236.602 69.1172V70.5938C236.602 76.125 235.945 81.2578 234.633 85.9922C233.367 90.7266 231.492 94.8516 229.008 98.3672C226.523 101.836 223.43 104.555 219.727 106.523C216.07 108.445 211.852 109.406 207.07 109.406C202.43 109.406 198.398 108.469 194.977 106.594C191.555 104.719 188.672 102.094 186.328 98.7188C184.031 95.2969 182.18 91.3359 180.773 86.8359C179.367 82.3359 178.289 77.5078 177.539 72.3516V68.4844C178.289 62.9531 179.367 57.8906 180.773 53.2969C182.18 48.6562 184.031 44.6484 186.328 41.2734C188.672 37.8516 191.531 35.2031 194.906 33.3281C198.328 31.4531 202.336 30.5156 206.93 30.5156C211.758 30.5156 216 31.4297 219.656 33.2578C223.359 35.0859 226.453 37.7109 228.938 41.1328C231.469 44.5547 233.367 48.6328 234.633 53.3672C235.945 58.1016 236.602 63.3516 236.602 69.1172ZM216.281 70.5938V69.1172C216.281 65.8828 216 62.9062 215.438 60.1875C214.922 57.4219 214.078 55.0078 212.906 52.9453C211.781 50.8828 210.281 49.2891 208.406 48.1641C206.578 46.9922 204.352 46.4062 201.727 46.4062C198.961 46.4062 196.594 46.8516 194.625 47.7422C192.703 48.6328 191.133 49.9219 189.914 51.6094C188.695 53.2969 187.781 55.3125 187.172 57.6562C186.562 60 186.188 62.6484 186.047 65.6016V75.375C186.281 78.8438 186.938 81.9609 188.016 84.7266C189.094 87.4453 190.758 89.6016 193.008 91.1953C195.258 92.7891 198.211 93.5859 201.867 93.5859C204.539 93.5859 206.789 93 208.617 91.8281C210.445 90.6094 211.922 88.9453 213.047 86.8359C214.219 84.7266 215.039 82.2891 215.508 79.5234C216.023 76.7578 216.281 73.7812 216.281 70.5938ZM270.562 31.9219V108H250.242V31.9219H270.562ZM248.977 12.0938C248.977 9.14062 250.008 6.70312 252.07 4.78125C254.133 2.85938 256.898 1.89844 260.367 1.89844C263.789 1.89844 266.531 2.85938 268.594 4.78125C270.703 6.70312 271.758 9.14062 271.758 12.0938C271.758 15.0469 270.703 17.4844 268.594 19.4062C266.531 21.3281 263.789 22.2891 260.367 22.2891C256.898 22.2891 254.133 21.3281 252.07 19.4062C250.008 17.4844 248.977 15.0469 248.977 12.0938ZM332.227 91.4062V0H352.617V108H334.266L332.227 91.4062ZM284.133 70.875V69.3984C284.133 63.5859 284.789 58.3125 286.102 53.5781C287.414 48.7969 289.336 44.6953 291.867 41.2734C294.398 37.8516 297.516 35.2031 301.219 33.3281C304.922 31.4531 309.141 30.5156 313.875 30.5156C318.328 30.5156 322.219 31.4531 325.547 33.3281C328.922 35.2031 331.781 37.875 334.125 41.3438C336.516 44.7656 338.438 48.8203 339.891 53.5078C341.344 58.1484 342.398 63.2344 343.055 68.7656V72C342.398 77.2969 341.344 82.2188 339.891 86.7656C338.438 91.3125 336.516 95.2969 334.125 98.7188C331.781 102.094 328.922 104.719 325.547 106.594C322.172 108.469 318.234 109.406 313.734 109.406C309 109.406 304.781 108.445 301.078 106.523C297.422 104.602 294.328 101.906 291.797 98.4375C289.312 94.9688 287.414 90.8906 286.102 86.2031C284.789 81.5156 284.133 76.4062 284.133 70.875ZM304.383 69.3984V70.875C304.383 74.0156 304.617 76.9453 305.086 79.6641C305.602 82.3828 306.422 84.7969 307.547 86.9062C308.719 88.9688 310.219 90.5859 312.047 91.7578C313.922 92.8828 316.195 93.4453 318.867 93.4453C322.336 93.4453 325.195 92.6719 327.445 91.125C329.695 89.5312 331.406 87.3516 332.578 84.5859C333.797 81.8203 334.5 78.6328 334.688 75.0234V65.8125C334.547 62.8594 334.125 60.2109 333.422 57.8672C332.766 55.4766 331.781 53.4375 330.469 51.75C329.203 50.0625 327.609 48.75 325.688 47.8125C323.812 46.875 321.586 46.4062 319.008 46.4062C316.383 46.4062 314.133 47.0156 312.258 48.2344C310.383 49.4062 308.859 51.0234 307.688 53.0859C306.562 55.1484 305.719 57.5859 305.156 60.3984C304.641 63.1641 304.383 66.1641 304.383 69.3984ZM447.188 23.1328L419.344 108H396.914L434.953 5.625H449.227L447.188 23.1328ZM470.32 108L442.406 23.1328L440.156 5.625H454.57L492.82 108H470.32ZM469.055 69.8906V86.4141H414.984V69.8906H469.055ZM542.18 71.5078H516.094V55.0547H542.18C546.211 55.0547 549.492 54.3984 552.023 53.0859C554.555 51.7266 556.406 49.8516 557.578 47.4609C558.75 45.0703 559.336 42.375 559.336 39.375C559.336 36.3281 558.75 33.4922 557.578 30.8672C556.406 28.2422 554.555 26.1328 552.023 24.5391C549.492 22.9453 546.211 22.1484 542.18 22.1484H523.406V108H502.312V5.625H542.18C550.195 5.625 557.062 7.07813 562.781 9.98438C568.547 12.8438 572.953 16.8047 576 21.8672C579.047 26.9297 580.57 32.7187 580.57 39.2344C580.57 45.8438 579.047 51.5625 576 56.3906C572.953 61.2188 568.547 64.9453 562.781 67.5703C557.062 70.1953 550.195 71.5078 542.18 71.5078ZM617.555 5.625V108H596.531V5.625H617.555Z" fill="black"/>
</svg>
